<svg width="77" height="44" viewBox="0 0 77 44" fill="none" xmlns="http://www.w3.org/2000/svg">
<g id="Group">
<path id="Vector" d="M67.9708 43.2668C69.3578 43.2668 70.7172 42.1156 71.002 40.7024L76.9448 8.02965C77.2204 6.61642 76.3294 5.47461 75.0618 5.47461H9.7363C8.22992 5.47461 6.8705 6.61642 6.58576 8.02965L0.0550416 40.7024C-0.229701 42.1156 0.670454 43.2668 2.05743 43.2668H67.9708Z" fill="#1A4298"/>
<path id="Vector_2" d="M30.4952 18.896L27.9509 31.5402C27.9509 31.5402 26.2241 38.8216 35.6206 38.8216C35.6206 38.8216 43.8873 39.1117 46.1745 32.4106L46.9276 28.6763H40.4888L39.8917 31.6431C39.8917 31.6431 39.258 34.1327 36.6034 33.9455C36.6034 33.9455 33.857 34.2356 34.4541 31.9333L37.081 18.9053C37.081 18.9053 37.1545 16.7527 40.1122 16.5094C40.1122 16.5094 42.8035 16.5094 42.5095 18.6152L41.8574 21.8722H48.3054L48.9668 18.6152C48.9668 18.6152 50.2343 11.6239 41.0675 11.8205C41.0675 11.8205 32.2588 12.2042 30.5136 18.9053" fill="white"/>
<path id="Vector_3" d="M50.1329 18.896L47.5886 31.5402C47.5886 31.5402 45.8526 38.8216 55.2583 38.8216C55.2583 38.8216 63.525 39.1117 65.8121 32.4106L66.5653 28.6763H60.1265L59.5294 31.6431C59.5294 31.6431 58.8956 34.1327 56.2503 33.9455C56.2503 33.9455 53.5039 34.2356 54.1009 31.9333L56.7279 18.9053C56.7279 18.9053 56.8014 16.7527 59.7591 16.5094C59.7591 16.5094 62.4503 16.5094 62.1564 18.6152L61.4951 21.8722H67.9431L68.6045 18.6152C68.6045 18.6152 69.872 11.6239 60.7051 11.8205C60.7051 11.8205 51.8965 12.2042 50.1513 18.9053" fill="white"/>
<path id="Vector_4" d="M39.4047 5.48397L31.9463 5.47461L18.7655 20.1123L20.8689 10.566L14.0534 10.5566L8.22998 38.138H15.0363L16.6069 30.4448L18.3705 28.3764L20.7127 38.1474H27.4639L23.5418 23.1353L39.4047 5.48397Z" fill="white"/>
<path id="Vector_5" d="M44.328 0H36.8512L31.9463 5.4751H39.4047L44.328 0Z" fill="#EE3123"/>
</g>
</svg>
